<svg width="900" height="603" viewBox="0 0 900 603" xmlns="http://www.w3.org/2000/svg" role="img" aria-label="Languages by Lines of Code">
      <style>
        .bg { fill: #0d1117; }
        .title { fill: #f0f6fc; font: 700 24px system-ui, -apple-system, Segoe UI, sans-serif; }
        .label { fill: #c9d1d9; font: 600 14px system-ui, -apple-system, Segoe UI, sans-serif; }
        .value { fill: #f0f6fc; font: 600 13px system-ui, -apple-system, Segoe UI, sans-serif; }
        .bar { fill: #58a6ff; }
        .meta { fill: #8b949e; font: 400 12px system-ui, -apple-system, Segoe UI, sans-serif; }
      </style>
      <rect width="100%" height="100%" rx="12" class="bg"/>
      <text x="30" y="34" class="title">Languages by Lines of Code</text>
      
        <text x="30" y="76" class="label">Unity-Prefab</text>
        <rect x="180" y="54" width="520" height="26" rx="5" class="bar"/>
        <text x="712" y="73" class="value">713,404 lines · 81.8%</text>
        
        <text x="30" y="118" class="label">JavaScript</text>
        <rect x="180" y="96" width="32" height="26" rx="5" class="bar"/>
        <text x="224" y="115" class="value">44,067 lines · 5.1%</text>
        
        <text x="30" y="160" class="label">JSON</text>
        <rect x="180" y="138" width="30" height="26" rx="5" class="bar"/>
        <text x="222" y="157" class="value">41,953 lines · 4.8%</text>
        
        <text x="30" y="202" class="label">C#</text>
        <rect x="180" y="180" width="15" height="26" rx="5" class="bar"/>
        <text x="207" y="199" class="value">21,285 lines · 2.4%</text>
        
        <text x="30" y="244" class="label">TypeScript</text>
        <rect x="180" y="222" width="10" height="26" rx="5" class="bar"/>
        <text x="202" y="241" class="value">14,824 lines · 1.7%</text>
        
        <text x="30" y="286" class="label">JSX</text>
        <rect x="180" y="264" width="10" height="26" rx="5" class="bar"/>
        <text x="202" y="283" class="value">14,592 lines · 1.7%</text>
        
        <text x="30" y="328" class="label">Python</text>
        <rect x="180" y="306" width="5" height="26" rx="5" class="bar"/>
        <text x="197" y="325" class="value">6,942 lines · 0.8%</text>
        
        <text x="30" y="370" class="label">HLSL</text>
        <rect x="180" y="348" width="4" height="26" rx="5" class="bar"/>
        <text x="196" y="367" class="value">6,751 lines · 0.8%</text>
        
        <text x="30" y="412" class="label">XML</text>
        <rect x="180" y="390" width="4" height="26" rx="5" class="bar"/>
        <text x="196" y="409" class="value">3,259 lines · 0.4%</text>
        
        <text x="30" y="454" class="label">HCL</text>
        <rect x="180" y="432" width="4" height="26" rx="5" class="bar"/>
        <text x="196" y="451" class="value">2,426 lines · 0.3%</text>
        
        <text x="30" y="496" class="label">Handlebars</text>
        <rect x="180" y="474" width="4" height="26" rx="5" class="bar"/>
        <text x="196" y="493" class="value">1,652 lines · 0.2%</text>
        
        <text x="30" y="538" class="label">TeX</text>
        <rect x="180" y="516" width="4" height="26" rx="5" class="bar"/>
        <text x="196" y="535" class="value">1,183 lines · 0.1%</text>
        
      <text x="30" y="585" class="meta">Metric: cloc code-line totals. Excludes HTML, CSS, Markdown, generated folders, and dependency folders.</text>
    </svg>