<svg width="900" height="619" viewBox="0 0 900 619" xmlns="http://www.w3.org/2000/svg" role="img" aria-label="GitHub language statistics">
  <style>
    .bg { fill: #0d1117; }
    .title { fill: #f0f6fc; font: 700 24px system-ui, -apple-system, Segoe UI, sans-serif; }
    .subtitle { fill: #8b949e; font: 400 13px system-ui, -apple-system, Segoe UI, sans-serif; }
    .label { fill: #c9d1d9; font: 600 14px system-ui, -apple-system, Segoe UI, sans-serif; }
    .value { fill: #f0f6fc; font: 600 13px system-ui, -apple-system, Segoe UI, sans-serif; }
    .bar { fill: #58a6ff; }
    .meta { fill: #8b949e; font: 400 12px system-ui, -apple-system, Segoe UI, sans-serif; }
  </style>
  <rect width="100%" height="100%" rx="12" class="bg"/>
  <text x="30" y="34" class="title">GitHub Language Stats</text>
  <text x="30" y="55" class="subtitle">Includes yahm0 and Terminal-Software repositories accessible to STATS_TOKEN</text>
  
    <text x="30" y="92" class="label">JavaScript</text>
    <rect x="180" y="70" width="560" height="26" rx="5" class="bar"/>
    <text x="752" y="89" class="value">51.0% · 2.9 MB · 24 repos</text>
    
    <text x="30" y="134" class="label">C#</text>
    <rect x="180" y="112" width="234" height="26" rx="5" class="bar"/>
    <text x="426" y="131" class="value">21.3% · 1.2 MB · 2 repos</text>
    
    <text x="30" y="176" class="label">TypeScript</text>
    <rect x="180" y="154" width="125" height="26" rx="5" class="bar"/>
    <text x="317" y="173" class="value">11.4% · 667.9 KB · 3 repos</text>
    
    <text x="30" y="218" class="label">Python</text>
    <rect x="180" y="196" width="63" height="26" rx="5" class="bar"/>
    <text x="255" y="215" class="value">5.8% · 340.1 KB · 3 repos</text>
    
    <text x="30" y="260" class="label">ShaderLab</text>
    <rect x="180" y="238" width="54" height="26" rx="5" class="bar"/>
    <text x="246" y="257" class="value">4.9% · 289.2 KB · 2 repos</text>
    
    <text x="30" y="302" class="label">Handlebars</text>
    <rect x="180" y="280" width="17" height="26" rx="5" class="bar"/>
    <text x="209" y="299" class="value">1.6% · 92.0 KB · 3 repos</text>
    
    <text x="30" y="344" class="label">HCL</text>
    <rect x="180" y="322" width="13" height="26" rx="5" class="bar"/>
    <text x="205" y="341" class="value">1.2% · 71.4 KB · 1 repos</text>
    
    <text x="30" y="386" class="label">TeX</text>
    <rect x="180" y="364" width="12" height="26" rx="5" class="bar"/>
    <text x="204" y="383" class="value">1.1% · 66.1 KB · 2 repos</text>
    
    <text x="30" y="428" class="label">Shell</text>
    <rect x="180" y="406" width="6" height="26" rx="5" class="bar"/>
    <text x="198" y="425" class="value">0.6% · 34.9 KB · 4 repos</text>
    
    <text x="30" y="470" class="label">HLSL</text>
    <rect x="180" y="448" width="6" height="26" rx="5" class="bar"/>
    <text x="198" y="467" class="value">0.6% · 33.2 KB · 2 repos</text>
    
    <text x="30" y="512" class="label">MATLAB</text>
    <rect x="180" y="490" width="4" height="26" rx="5" class="bar"/>
    <text x="196" y="509" class="value">0.2% · 14.5 KB · 2 repos</text>
    
    <text x="30" y="554" class="label">Makefile</text>
    <rect x="180" y="532" width="4" height="26" rx="5" class="bar"/>
    <text x="196" y="551" class="value">0.2% · 9.3 KB · 3 repos</text>
    
  <text x="30" y="601" class="meta">Metric: GitHub Linguist byte totals by language, excluding HTML, CSS, and Markdown.</text>
</svg>