<svg width="900" height="603" viewBox="0 0 900 603" xmlns="http://www.w3.org/2000/svg" role="img" aria-label="Languages by Lines of Code">
      <style>
        .bg { fill: #0d1117; }
        .title { fill: #f0f6fc; font: 700 24px system-ui, -apple-system, Segoe UI, sans-serif; }
        .label { fill: #c9d1d9; font: 600 14px system-ui, -apple-system, Segoe UI, sans-serif; }
        .value { fill: #f0f6fc; font: 600 13px system-ui, -apple-system, Segoe UI, sans-serif; }
        .bar { fill: #58a6ff; }
        .meta { fill: #8b949e; font: 400 12px system-ui, -apple-system, Segoe UI, sans-serif; }
      </style>
      <rect width="100%" height="100%" rx="12" class="bg"/>
      <text x="30" y="34" class="title">Languages by Lines of Code</text>
      
        <text x="30" y="76" class="label">CSS</text>
        <rect x="180" y="54" width="520" height="26" rx="5" class="bar"/>
        <text x="712" y="73" class="value">48,021 lines · 30.2%</text>
        
        <text x="30" y="118" class="label">JavaScript</text>
        <rect x="180" y="96" width="477" height="26" rx="5" class="bar"/>
        <text x="669" y="115" class="value">44,067 lines · 27.8%</text>
        
        <text x="30" y="160" class="label">C#</text>
        <rect x="180" y="138" width="230" height="26" rx="5" class="bar"/>
        <text x="422" y="157" class="value">21,285 lines · 13.4%</text>
        
        <text x="30" y="202" class="label">TypeScript</text>
        <rect x="180" y="180" width="160" height="26" rx="5" class="bar"/>
        <text x="352" y="199" class="value">14,824 lines · 9.3%</text>
        
        <text x="30" y="244" class="label">HTML</text>
        <rect x="180" y="222" width="123" height="26" rx="5" class="bar"/>
        <text x="315" y="241" class="value">11,419 lines · 7.2%</text>
        
        <text x="30" y="286" class="label">Python</text>
        <rect x="180" y="264" width="75" height="26" rx="5" class="bar"/>
        <text x="267" y="283" class="value">6,942 lines · 4.4%</text>
        
        <text x="30" y="328" class="label">HLSL</text>
        <rect x="180" y="306" width="73" height="26" rx="5" class="bar"/>
        <text x="265" y="325" class="value">6,751 lines · 4.3%</text>
        
        <text x="30" y="370" class="label">HCL</text>
        <rect x="180" y="348" width="26" height="26" rx="5" class="bar"/>
        <text x="218" y="367" class="value">2,426 lines · 1.5%</text>
        
        <text x="30" y="412" class="label">TeX</text>
        <rect x="180" y="390" width="12" height="26" rx="5" class="bar"/>
        <text x="204" y="409" class="value">1,183 lines · 0.7%</text>
        
        <text x="30" y="454" class="label">Bourne Shell</text>
        <rect x="180" y="432" width="8" height="26" rx="5" class="bar"/>
        <text x="200" y="451" class="value">743 lines · 0.5%</text>
        
        <text x="30" y="496" class="label">SQL</text>
        <rect x="180" y="474" width="6" height="26" rx="5" class="bar"/>
        <text x="198" y="493" class="value">555 lines · 0.3%</text>
        
        <text x="30" y="538" class="label">Julia</text>
        <rect x="180" y="516" width="5" height="26" rx="5" class="bar"/>
        <text x="197" y="535" class="value">540 lines · 0.3%</text>
        
      <text x="30" y="585" class="meta"></text>
    </svg>